# xmcd
#
# Track frame offsets:
#	150
#	14660
#	33152
#	51980
#
# Disc length: 967 seconds
#
# Revision: 0
# Processed by: cddbd v1.4PL0 Copyright (c) Steve Scherf et al.
# Submitted via: audiograbber 1.81.01
#
DISCID=2d03c504
DTITLE=Franke - Foam kisses
DYEAR=1997
DGENRE=Blues
TTITLE0=Foam kisses
TTITLE1=Be my baby
TTITLE2=My baby
TTITLE3=Another language
EXTD=
EXTT0=
EXTT1=
EXTT2=
EXTT3=
PLAYORDER=
